<svg width="130" height="89" viewBox="0 0 130 89" fill="none" xmlns="http://www.w3.org/2000/svg">
<path d="M101.2 82C101.067 79.4 100.9 76.8667 100.7 74.4C100.567 71.8667 100.4 69.3667 100.2 66.9H74.2C72.8667 69.3667 71.4667 71.8667 70 74.4C68.5333 76.8667 67.1333 79.4 65.8 82H49.5C53.8333 74.5333 57.8667 67.6333 61.6 61.3C65.4 54.9667 69.0333 49 72.5 43.4C76.0333 37.8 79.4667 32.5 82.8 27.5C86.1333 22.4333 89.5333 17.5 93 12.7H106.9C107.967 17.5 108.967 22.8333 109.9 28.7C110.9 34.5 111.8 40.4667 112.6 46.6C113.467 52.6667 114.233 58.7667 114.9 64.9C115.633 70.9667 116.3 76.6667 116.9 82H101.2ZM96.6 27.9C93.8 32.3667 91.0333 36.8 88.3 41.2C85.6333 45.6 83.0333 50.1 80.5 54.7H99.2C98.8667 50.6333 98.5 46.3 98.1 41.7C97.7667 37.1 97.2667 32.5 96.6 27.9Z" fill="#6C6DFF"/>
<path d="M61.4 78C58.6667 79.3333 55.6333 80.4 52.3 81.2C48.9667 82 44.9 82.4 40.1 82.4C35.9667 82.4 32.1667 81.7333 28.7 80.4C25.3 79 22.3667 77.0333 19.9 74.5C17.5 71.9667 15.6333 68.9 14.3 65.3C12.9667 61.6333 12.3 57.5333 12.3 53C12.3 47.8 13.2 42.6333 15 37.5C16.8667 32.3667 19.5667 27.8 23.1 23.8C26.7 19.7333 31.0667 16.4333 36.2 13.9C41.4 11.3667 47.3667 10.1 54.1 10.1C57.3 10.1 60.4333 10.4667 63.5 11.2C66.6333 11.9333 69.9 13.2333 73.3 15.1L67.7 27.2C64.9 25.7333 62.4 24.7333 60.2 24.2C58 23.6667 55.6333 23.4 53.1 23.4C49.3 23.4 45.8667 24.1667 42.8 25.7C39.8 27.2333 37.2 29.3333 35 32C32.8667 34.6 31.2333 37.6333 30.1 41.1C28.9667 44.5667 28.4 48.2333 28.4 52.1C28.4 57.9667 29.6667 62.2333 32.2 64.9C34.8 67.5667 38.5 68.9 43.3 68.9C46.5 68.9 49.4333 68.5667 52.1 67.9C54.8333 67.2333 57.3667 66.3667 59.7 65.3L61.4 78Z" fill="#6C6DFF"/>
</svg>
